Music_tempora_teamenc:
	musicheader 4, 1, Music_tempora_teamenc_Ch1
	musicheader 1, 2, Music_tempora_teamenc_Ch2
	musicheader 1, 3, Music_tempora_teamenc_Ch3
	musicheader 1, 4, Music_tempora_teamenc_Ch4

Music_tempora_teamenc_Ch1:
	tempo $98
	volume $77
	stereopanning $77
	dutycycle 1
	octave 4
	notetype $C, $FF
	note C#, 1
	octave 3
	note A_, 1
	note C#, 1
	octave 4
	note C#, 1
	octave 3
	note A_, 1
	note C#, 1
	octave 4
	note C#, 1
	octave 3
	note A_, 1
	note C#, 1
	octave 4
	note C#, 1
	octave 3
	note A_, 1
	note C#, 1
	octave 4
	note C#, 1
	octave 3
	note A_, 1
	note E_, 1
	note A_, 1
Music_tempora_teamenc_Ch1_loop:
	note D_, 4
	note E_, 4
	note F_, 4
	note A_, 2
	note F_, 1
	note A_, 1
	note G#, 8
	note __, 2
	note G_, 1
	note G#, 1
	note E_, 2
	note F_, 2
	note G_, 4
	note F_, 4
	note E_, 2
	note F_, 2
	note G_, 4
	note A_, 8
	octave 4
	note D_, 4
	octave 3
	note D_, 1
	note A_, 1
	note D_, 1
	octave 2
	note A_, 1
	octave 3
	note D_, 4
	note E_, 4
	note F_, 4
	note A_, 2
	note F_, 1
	note A_, 1
	note G#, 8
	note __, 2
	note G_, 2
	note E_, 2
	note F_, 2
	note G_, 4
	note F_, 4
	note E_, 2
	note F_, 1
	note E_, 1
	note C#, 2
	octave 2
	note A_, 2
	octave 3
	note D_, 16
	octave 2
	note A_, 1
	octave 3
	note D_, 1
	note A_, 1
	octave 4
	note D_, 1
	octave 3
	note A_, 1
	note D_, 1
	octave 2
	note A_, 1
	octave 3
	note D_, 1
	octave 2
	note A_, 1
	octave 3
	note D_, 1
	note A_, 1
	octave 4
	note D_, 1
	octave 3
	note A_, 1
	note D_, 1
	octave 2
	note A_, 1
	octave 3
	note D_, 1
	octave 2
	note A_, 1
	octave 3
	note D_, 1
	note A_, 1
	octave 4
	note D_, 1
	octave 3
	note A_, 1
	note D_, 1
	octave 2
	note A_, 1
	octave 3
	note D_, 1
	octave 2
	note A_, 1
	octave 3
	note D_, 1
	note A_, 1
	octave 4
	note D_, 1
	octave 3
	note A_, 1
	note D_, 1
	octave 2
	note A_, 1
	octave 3
	note D_, 1
	octave 2
	note A_, 1
	octave 3
	note D_, 1
	note A_, 1
	octave 4
	note D_, 1
	octave 3
	note A_, 1
	note D_, 1
	octave 2
	note A_, 1
	octave 3
	note D_, 1
	octave 2
	note A_, 1
	octave 3
	note D_, 1
	note A_, 1
	octave 4
	note D_, 1
	octave 3
	note A_, 1
	note D_, 1
	octave 2
	note A_, 1
	octave 3
	note D_, 1
	octave 2
	note A_, 1
	octave 3
	note D_, 1
	note A_, 1
	octave 4
	note D_, 1
	octave 3
	note A_, 1
	note D_, 1
	octave 2
	note A_, 1
	octave 3
	note D_, 1
	octave 2
	note A_, 1
	octave 3
	note D_, 1
	note A_, 1
	octave 4
	note D_, 1
	octave 3
	note A_, 1
	note D_, 1
	octave 2
	note A_, 1
	octave 3
	note D_, 1
	loopchannel 0, Music_tempora_teamenc_Ch1_loop

Music_tempora_teamenc_Ch2:
	dutycycle 1
	octave 2
	notetype $C, $FF
	note C#, 4
	note C#, 4
	note E_, 4
	note E_, 4
Music_tempora_teamenc_Ch2_loop:
	note A_, 8
	octave 3
	note D_, 8
	note E_, 12
	note D_, 4
	note C#, 8
	octave 2
	note A_, 8
	octave 3
	note D_, 16
	octave 2
	note A_, 8
	octave 3
	note D_, 8
	note E_, 12
	note D_, 4
	note C#, 8
	octave 2
	note A_, 8
	note D_, 16
	octave 3
	note D_, 16
	note __, 16
	octave 2
	note D_, 16
	note __, 16
	loopchannel 0, Music_tempora_teamenc_Ch2_loop

Music_tempora_teamenc_Ch3:
	dutycycle 1
	octave 2
	notetype $C, $11
	note C#, 12
	note E_, 1
	note G_, 1
	note E_, 1
	note G_, 1
Music_tempora_teamenc_Ch3_loop:
	note D_, 1
	note __, 1
	note D_, 1
	note D_, 1
	note D_, 1
	note __, 1
	note D_, 1
	note __, 1
	note D_, 1
	note __, 1
	note D_, 1
	note D_, 1
	note D_, 1
	note A_, 1
	note D_, 1
	note A_, 1
	note E_, 1
	note __, 1
	note E_, 1
	note E_, 1
	note E_, 1
	note __, 1
	note E_, 1
	note __, 1
	note E_, 1
	note __, 1
	note E_, 1
	note E_, 1
	note E_, 1
	note B_, 1
	note E_, 1
	note D_, 1
	note C#, 1
	note __, 1
	note C#, 1
	note C#, 1
	note C#, 1
	note __, 1
	note C#, 1
	note __, 1
	note C#, 1
	note __, 1
	note C#, 1
	note C#, 1
	note C#, 1
	note E_, 1
	note C#, 1
	note D#, 1
	note D_, 1
	note __, 1
	note D_, 1
	note D_, 1
	note D_, 1
	note __, 1
	note D_, 1
	note __, 1
	note D_, 1
	note __, 1
	note D_, 1
	note D_, 1
	octave 3
	note D_, 1
	octave 2
	note A_, 1
	note D_, 1
	note A_, 1
	note D_, 1
	note __, 1
	note D_, 1
	note D_, 1
	note D_, 1
	note __, 1
	note D_, 1
	note __, 1
	note D_, 1
	note __, 1
	note D_, 1
	note D_, 1
	note D_, 1
	note A_, 1
	note D_, 1
	note A_, 1
	note E_, 1
	note __, 1
	note E_, 1
	note E_, 1
	note E_, 1
	note __, 1
	note E_, 1
	note __, 1
	note E_, 1
	note __, 1
	note E_, 1
	note E_, 1
	note E_, 1
	note B_, 1
	note E_, 1
	note D_, 1
	note C#, 1
	note __, 1
	note C#, 1
	note C#, 1
	note C#, 1
	note __, 1
	note C#, 1
	note __, 1
	note C#, 1
	note __, 1
	note C#, 1
	note C#, 1
	note C#, 1
	note E_, 1
	note C#, 1
	note D#, 1
	note D_, 16
	note D_, 1
	note __, 1
	note D_, 1
	note D_, 1
	note D_, 1
	note __, 1
	note D_, 1
	note __, 1
	octave 3
	note D_, 1
	note D_, 1
	octave 2
	note D_, 1
	note __, 1
	octave 3
	note D_, 1
	note __, 1
	octave 2
	note D_, 2
	note D_, 1
	note __, 1
	note D_, 1
	note D_, 1
	note D_, 1
	note __, 1
	note D_, 1
	note __, 1
	octave 3
	note D_, 1
	note D_, 1
	octave 2
	note D_, 2
	note E_, 2
	note F_, 2
	note D_, 1
	note __, 1
	note D_, 1
	note D_, 1
	note D_, 1
	note __, 1
	note D_, 1
	note __, 1
	octave 3
	note D_, 1
	note D_, 1
	octave 2
	note D_, 1
	note __, 1
	octave 3
	note D_, 1
	note __, 1
	octave 2
	note D_, 2
	note D_, 1
	note __, 1
	note D_, 1
	note D_, 1
	note D_, 1
	note __, 1
	note D_, 1
	note __, 1
	octave 3
	note D_, 1
	note D_, 1
	octave 2
	note D_, 2
	note E_, 2
	note F_, 2
	loopchannel 0, Music_tempora_teamenc_Ch3_loop

Music_tempora_teamenc_Ch4:
	notetype $C
	note __, 8
	togglenoise 2
	note G#, 1
	note G#, 1
	note G#, 1
	note G#, 1
	note G#, 1
	note G#, 1
	notetype $6
	note G#, 1
	note G#, 1
	note G#, 2
Music_tempora_teamenc_Ch4_loop:
	notetype $6
	note D#, 3
	note __, 1
	note D#, 1
	note __, 1
	note D#, 1
	note __, 1
	note G#, 4
	note D#, 1
	note __, 1
	note D#, 1
	note __, 1
	note D#, 3
	note __, 1
	note D#, 1
	note __, 1
	note D#, 1
	note __, 1
	note G#, 4
	note D#, 1
	note __, 1
	note D#, 1
	note __, 1
	note D#, 3
	note __, 1
	note D#, 1
	note __, 1
	note D#, 1
	note __, 1
	note G#, 4
	note D#, 1
	note __, 1
	note D#, 1
	note __, 1
	note D#, 3
	note __, 1
	note D#, 1
	note __, 1
	note D#, 1
	note __, 1
	note G#, 4
	note D#, 1
	note __, 1
	note D#, 1
	note __, 1
	note D#, 3
	note __, 1
	note D#, 1
	note __, 1
	note D#, 1
	note __, 1
	note G#, 4
	note D#, 1
	note __, 1
	note D#, 1
	note __, 1
	note D#, 3
	note __, 1
	note D#, 1
	note __, 1
	note D#, 1
	note __, 1
	note G#, 4
	note D#, 1
	note __, 1
	note D#, 1
	note __, 1
	note D#, 3
	note __, 1
	note D#, 1
	note __, 1
	note D#, 1
	note __, 1
	note G#, 4
	note D#, 1
	note __, 1
	note D#, 1
	note __, 1
	note D#, 3
	note __, 1
	note D#, 1
	note __, 1
	note D#, 1
	note __, 1
	note G#, 4
	note D#, 1
	note __, 1
	note D#, 1
	note __, 1
	note D#, 3
	note __, 1
	note D#, 1
	note __, 1
	note D#, 1
	note __, 1
	note G#, 4
	note D#, 1
	note __, 1
	note D#, 1
	note __, 1
	note D#, 3
	note __, 1
	note D#, 1
	note __, 1
	note D#, 1
	note __, 1
	note G#, 4
	note D#, 1
	note __, 1
	note D#, 1
	note __, 1
	note D#, 3
	note __, 1
	note D#, 1
	note __, 1
	note D#, 1
	note __, 1
	note G#, 4
	note D#, 1
	note __, 1
	note D#, 1
	note __, 1
	note D#, 3
	note __, 1
	note D#, 1
	note __, 1
	note D#, 1
	note __, 1
	note G#, 4
	note D#, 1
	note __, 1
	note D#, 1
	note __, 1
	note D#, 3
	note __, 1
	note D#, 1
	note __, 1
	note D#, 1
	note __, 1
	note G#, 4
	note D#, 1
	note __, 1
	note D#, 1
	note __, 1
	note D#, 3
	note __, 1
	note D#, 1
	note __, 1
	note D#, 1
	note __, 1
	note G#, 4
	note D#, 1
	note __, 1
	note D#, 1
	note __, 1
	note B_, 16
	note G#, 2
	note G#, 2
	note G#, 2
	note G#, 2
	notetype $5
	note G#, 1
	note G#, 1
	notetype $2
	note __, 1
	note G#, 6
	note G#, 6
	note G#, 6
	note D#, 9
	note __, 3
	note D#, 3
	note __, 3
	note D#, 3
	note __, 3
	note G#, 12
	note D#, 3
	note __, 3
	note D#, 3
	note __, 3
	note D#, 9
	note __, 3
	note D#, 3
	note __, 3
	note D#, 3
	note __, 3
	note G#, 12
	note D#, 3
	note __, 3
	note D#, 3
	note __, 3
	note D#, 9
	note __, 3
	note D#, 3
	note __, 3
	note D#, 3
	note __, 3
	note G#, 12
	note D#, 3
	note __, 3
	note D#, 3
	note __, 3
	note D#, 9
	note __, 3
	note D#, 3
	note __, 3
	note D#, 3
	note __, 3
	note G#, 12
	note D#, 3
	note __, 3
	note D#, 3
	note __, 3
	note D#, 9
	note __, 3
	note D#, 3
	note __, 3
	note D#, 3
	note __, 3
	note G#, 12
	note D#, 3
	note __, 3
	note D#, 3
	note __, 3
	note D#, 9
	note __, 3
	note D#, 3
	note __, 3
	note D#, 3
	note __, 3
	note G#, 12
	note D#, 3
	note __, 3
	note D#, 3
	note __, 3
	note D#, 9
	note __, 3
	note D#, 3
	note __, 3
	note D#, 3
	note __, 3
	note G#, 12
	note D#, 3
	note __, 3
	note D#, 3
	note __, 3
	note G#, 12
	note G#, 6
	note G#, 6
	note G#, 6
	note G#, 6
	note G#, 6
	note G#, 6
	loopchannel 0, Music_tempora_teamenc_Ch4_loop

