Music_tempora_teamadminenc:
	musicheader 4, 1, Music_tempora_teamadminenc_Ch1
	musicheader 1, 2, Music_tempora_teamadminenc_Ch2
	musicheader 1, 3, Music_tempora_teamadminenc_Ch3
	musicheader 1, 4, Music_tempora_teamadminenc_Ch4

Music_tempora_teamadminenc_Ch1:
	tempo $A5
	volume $77
	stereopanning $77
	dutycycle 1
	octave 4
	notetype $C, $F6
	note C_, 1
	octave 3
	note G#, 1
	note C_, 1
	octave 4
	note C_, 1
	octave 3
	note G#, 1
	note C_, 1
	octave 4
	note C_, 1
	octave 3
	note G#, 1
	note C_, 1
	octave 4
	note C_, 1
	octave 3
	note G#, 1
	note C_, 1
	octave 4
	note C_, 1
	octave 3
	note G#, 1
	note D#, 1
	note G#, 1
Music_tempora_teamadminenc_Ch1_loop:
	note C#, 4
	note D#, 4
	note E_, 4
	note G#, 2
	note E_, 1
	note G#, 1
	note G_, 8
	note __, 2
	note F#, 1
	note G_, 1
	note D#, 2
	note E_, 2
	note F#, 4
	note E_, 4
	note D#, 2
	note E_, 2
	note F#, 4
	note G#, 8
	octave 4
	note C#, 4
	octave 3
	note C#, 1
	note G#, 1
	note C#, 1
	octave 2
	note G#, 1
	octave 3
	note C#, 4
	note D#, 4
	note E_, 4
	note G#, 2
	note E_, 1
	note G#, 1
	note G_, 8
	note __, 2
	note F#, 2
	note D#, 2
	note E_, 2
	note F#, 4
	note E_, 4
	note D#, 2
	note E_, 1
	note D#, 1
	note C_, 2
	octave 2
	note G#, 2
	octave 3
	note C#, 16
	octave 2
	note G#, 1
	octave 3
	note C#, 1
	note G#, 1
	octave 4
	note C#, 1
	octave 3
	note G#, 1
	note C#, 1
	octave 2
	note G#, 1
	octave 3
	note C#, 1
	octave 2
	note G#, 1
	octave 3
	note C#, 1
	note G#, 1
	octave 4
	note C#, 1
	octave 3
	note G#, 1
	note C#, 1
	octave 2
	note G#, 1
	octave 3
	note C#, 1
	octave 2
	note G#, 1
	octave 3
	note C#, 1
	note G#, 1
	octave 4
	note C#, 1
	octave 3
	note G#, 1
	note C#, 1
	octave 2
	note G#, 1
	octave 3
	note C#, 1
	octave 2
	note G#, 1
	octave 3
	note C#, 1
	note G#, 1
	octave 4
	note C#, 1
	octave 3
	note G#, 1
	note C#, 1
	octave 2
	note G#, 1
	octave 3
	note C#, 1
	octave 2
	note G#, 1
	octave 3
	note C#, 1
	note G#, 1
	octave 4
	note C#, 1
	octave 3
	note G#, 1
	note C#, 1
	octave 2
	note G#, 1
	octave 3
	note C#, 1
	octave 2
	note G#, 1
	octave 3
	note C#, 1
	note G#, 1
	octave 4
	note C#, 1
	octave 3
	note G#, 1
	note C#, 1
	octave 2
	note G#, 1
	octave 3
	note C#, 1
	octave 2
	note G#, 1
	octave 3
	note C#, 1
	note G#, 1
	octave 4
	note C#, 1
	octave 3
	note G#, 1
	note C#, 1
	octave 2
	note G#, 1
	octave 3
	note C#, 1
	octave 2
	note G#, 1
	octave 3
	note C#, 1
	note G#, 1
	octave 4
	note C#, 1
	octave 3
	note G#, 1
	note C#, 1
	octave 2
	note G#, 1
	octave 3
	note C#, 1
	loopchannel 0, Music_tempora_teamadminenc_Ch1_loop

Music_tempora_teamadminenc_Ch2:
	octave 2
	notetype $C, $D7
	note C_, 4
	note C_, 4
	note D#, 4
	note D#, 4
Music_tempora_teamadminenc_Ch2_loop:
	note G#, 8
	octave 3
	note C#, 8
	note D#, 12
	note C#, 4
	note C_, 8
	octave 2
	note G#, 8
	octave 3
	note C#, 16
	octave 2
	note G#, 8
	octave 3
	note C#, 8
	note D#, 12
	note C#, 4
	note C_, 8
	octave 2
	note G#, 8
	note C#, 16
	octave 3
	note C#, 16
	note __, 16
	octave 2
	note C#, 16
	note __, 16
	loopchannel 0, Music_tempora_teamadminenc_Ch2_loop

Music_tempora_teamadminenc_Ch3:
	dutycycle 5
	octave 2
	notetype $C, $15
	note C_, 12
	note D#, 1
	note F#, 1
	note D#, 1
	note F#, 1
Music_tempora_teamadminenc_Ch3_loop:
	note C#, 1
	note __, 1
	note C#, 1
	note C#, 1
	note C#, 1
	note __, 1
	note C#, 1
	note __, 1
	note C#, 1
	note __, 1
	note C#, 1
	note C#, 1
	note C#, 1
	note G#, 1
	note C#, 1
	note G#, 1
	note D#, 1
	note __, 1
	note D#, 1
	note D#, 1
	note D#, 1
	note __, 1
	note D#, 1
	note __, 1
	note D#, 1
	note __, 1
	note D#, 1
	note D#, 1
	note D#, 1
	note A#, 1
	note D#, 1
	note C#, 1
	note C_, 1
	note __, 1
	note C_, 1
	note C_, 1
	note C_, 1
	note __, 1
	note C_, 1
	note __, 1
	note C_, 1
	note __, 1
	note C_, 1
	note C_, 1
	note C_, 1
	note D#, 1
	note C_, 1
	note D_, 1
	note C#, 1
	note __, 1
	note C#, 1
	note C#, 1
	note C#, 1
	note __, 1
	note C#, 1
	note __, 1
	note C#, 1
	note __, 1
	note C#, 1
	note C#, 1
	octave 3
	note C#, 1
	octave 2
	note G#, 1
	note C#, 1
	note G#, 1
	note C#, 1
	note __, 1
	note C#, 1
	note C#, 1
	note C#, 1
	note __, 1
	note C#, 1
	note __, 1
	note C#, 1
	note __, 1
	note C#, 1
	note C#, 1
	note C#, 1
	note G#, 1
	note C#, 1
	note G#, 1
	note D#, 1
	note __, 1
	note D#, 1
	note D#, 1
	note D#, 1
	note __, 1
	note D#, 1
	note __, 1
	note D#, 1
	note __, 1
	note D#, 1
	note D#, 1
	note D#, 1
	note A#, 1
	note D#, 1
	note C#, 1
	note C_, 1
	note __, 1
	note C_, 1
	note C_, 1
	note C_, 1
	note __, 1
	note C_, 1
	note __, 1
	note C_, 1
	note __, 1
	note C_, 1
	note C_, 1
	note C_, 1
	note D#, 1
	note C_, 1
	note D_, 1
	note C#, 16
	octave 3
	note C#, 2
	octave 2
	note G#, 1
	octave 3
	note C#, 2
	octave 2
	note G#, 1
	octave 3
	note C#, 2
	octave 2
	note G#, 1
	octave 3
	note C#, 1
	octave 2
	note B_, 1
	note G#, 1
	octave 3
	note C#, 2
	octave 2
	note G#, 2
	octave 3
	note C#, 2
	octave 2
	note G#, 1
	octave 3
	note C#, 2
	octave 2
	note G#, 1
	octave 3
	note C#, 2
	octave 2
	note G#, 1
	octave 3
	note C#, 1
	note D_, 1
	octave 2
	note G#, 1
	octave 3
	note E_, 2
	note D_, 2
	note C#, 2
	octave 2
	note G#, 1
	octave 3
	note C#, 2
	octave 2
	note G#, 1
	octave 3
	note C#, 2
	octave 2
	note G#, 1
	octave 3
	note C#, 2
	octave 2
	note G#, 1
	octave 3
	note C#, 2
	octave 2
	note G#, 2
	octave 3
	note C#, 2
	octave 2
	note G#, 1
	octave 3
	note C#, 2
	octave 2
	note G#, 1
	octave 3
	note C#, 2
	octave 2
	note G#, 1
	octave 3
	note C#, 1
	note E_, 1
	note D_, 1
	note C#, 1
	octave 2
	note B_, 1
	note A_, 1
	note B_, 1
	loopchannel 0, Music_tempora_teamadminenc_Ch3_loop

Music_tempora_teamadminenc_Ch4:
	notetype $C
	note __, 8
	togglenoise 2
	note G#, 1
	note G#, 1
	note G#, 1
	note G#, 1
	note G#, 1
	note G#, 1
	notetype $6
	note G#, 1
	note G#, 1
	note G#, 2
Music_tempora_teamadminenc_Ch4_loop:
	notetype $6
	note D#, 3
	note __, 1
	note D#, 1
	note __, 1
	note D#, 1
	note __, 1
	note G#, 4
	note D#, 1
	note __, 1
	note D#, 1
	note __, 1
	note D#, 3
	note __, 1
	note D#, 1
	note __, 1
	note D#, 1
	note __, 1
	note G#, 4
	note D#, 1
	note __, 1
	note D#, 1
	note __, 1
	note D#, 3
	note __, 1
	note D#, 1
	note __, 1
	note D#, 1
	note __, 1
	note G#, 4
	note D#, 1
	note __, 1
	note D#, 1
	note __, 1
	note D#, 3
	note __, 1
	note D#, 1
	note __, 1
	note D#, 1
	note __, 1
	note G#, 4
	note D#, 1
	note __, 1
	note D#, 1
	note __, 1
	note D#, 3
	note __, 1
	note D#, 1
	note __, 1
	note D#, 1
	note __, 1
	note G#, 4
	note D#, 1
	note __, 1
	note D#, 1
	note __, 1
	note D#, 3
	note __, 1
	note D#, 1
	note __, 1
	note D#, 1
	note __, 1
	note G#, 4
	note D#, 1
	note __, 1
	note D#, 1
	note __, 1
	note D#, 3
	note __, 1
	note D#, 1
	note __, 1
	note D#, 1
	note __, 1
	note G#, 4
	note D#, 1
	note __, 1
	note D#, 1
	note __, 1
	note D#, 3
	note __, 1
	note D#, 1
	note __, 1
	note D#, 1
	note __, 1
	note G#, 4
	note D#, 1
	note __, 1
	note D#, 1
	note __, 1
	note D#, 3
	note __, 1
	note D#, 1
	note __, 1
	note D#, 1
	note __, 1
	note G#, 4
	note D#, 1
	note __, 1
	note D#, 1
	note __, 1
	note D#, 3
	note __, 1
	note D#, 1
	note __, 1
	note D#, 1
	note __, 1
	note G#, 4
	note D#, 1
	note __, 1
	note D#, 1
	note __, 1
	note D#, 3
	note __, 1
	note D#, 1
	note __, 1
	note D#, 1
	note __, 1
	note G#, 4
	note D#, 1
	note __, 1
	note D#, 1
	note __, 1
	note D#, 3
	note __, 1
	note D#, 1
	note __, 1
	note D#, 1
	note __, 1
	note G#, 4
	note D#, 1
	note __, 1
	note D#, 1
	note __, 1
	note D#, 3
	note __, 1
	note D#, 1
	note __, 1
	note D#, 1
	note __, 1
	note G#, 4
	note D#, 1
	note __, 1
	note D#, 1
	note __, 1
	note D#, 3
	note __, 1
	note D#, 1
	note __, 1
	note D#, 1
	note __, 1
	note G#, 4
	note D#, 1
	note __, 1
	note D#, 1
	note __, 1
	note B_, 16
	note G#, 2
	note G#, 2
	note G#, 2
	note G#, 2
	notetype $5
	note G#, 1
	note G#, 1
	notetype $2
	note __, 1
	note G#, 6
	note G#, 6
	note G#, 6
	note D#, 9
	note __, 3
	note D#, 3
	note __, 3
	note D#, 3
	note __, 3
	note G#, 12
	note D#, 3
	note __, 3
	note D#, 3
	note __, 3
	note D#, 9
	note __, 3
	note D#, 3
	note __, 3
	note D#, 3
	note __, 3
	note G#, 12
	note D#, 3
	note __, 3
	note D#, 3
	note __, 3
	note D#, 9
	note __, 3
	note D#, 3
	note __, 3
	note D#, 3
	note __, 3
	note G#, 12
	note D#, 3
	note __, 3
	note D#, 3
	note __, 3
	note D#, 9
	note __, 3
	note D#, 3
	note __, 3
	note D#, 3
	note __, 3
	note G#, 12
	note D#, 3
	note __, 3
	note D#, 3
	note __, 3
	note D#, 9
	note __, 3
	note D#, 3
	note __, 3
	note D#, 3
	note __, 3
	note G#, 12
	note D#, 3
	note __, 3
	note D#, 3
	note __, 3
	note D#, 9
	note __, 3
	note D#, 3
	note __, 3
	note D#, 3
	note __, 3
	note G#, 12
	note D#, 3
	note __, 3
	note D#, 3
	note __, 3
	note D#, 9
	note __, 3
	note D#, 3
	note __, 3
	note D#, 3
	note __, 3
	note G#, 12
	note D#, 3
	note __, 3
	note D#, 3
	note __, 3
	note G#, 12
	note G#, 6
	note G#, 6
	note G#, 6
	note G#, 6
	note G#, 6
	note G#, 6
	loopchannel 0, Music_tempora_teamadminenc_Ch4_loop

