Music_tempora_hideout:
	musicheader 4, 1, Music_tempora_hideout_Ch1
	musicheader 1, 2, Music_tempora_hideout_Ch2
	musicheader 1, 3, Music_tempora_hideout_Ch3
	musicheader 1, 4, Music_tempora_hideout_Ch4

Music_tempora_hideout_Ch1:
	tempo $A6
	volume $77
	stereopanning $77
	dutycycle 1
	octave 2
	notetype $C, $FF
	note C_, 1
	note __, 1
	notetype $6, $FF
	note C_, 1
	note __, 1
	note C_, 1
	note __, 1
	note C_, 2
	note __, 2
	note C_, 1
	note __, 1
	note C_, 1
	note __, 1
	note C_, 2
	note __, 2
	note C_, 1
	note __, 1
	note C#, 6
	octave 1
	note A#, 4
	octave 2
	note C_, 2
	note __, 2
	note C_, 1
	note __, 1
	note C_, 1
	note __, 1
	note C_, 2
	note __, 2
	note C_, 1
	note __, 1
	note C_, 1
	note __, 1
	note C_, 2
	note __, 2
	note C_, 1
	note __, 1
	note C#, 6
	octave 1
	note A#, 4
Music_tempora_hideout_Ch1_loop:
	octave 3
	note C_, 16
	note G_, 8
	note D#, 8
	note D_, 12
	note D#, 2
	note F_, 2
	note D#, 8
	note F_, 4
	note G_, 4
	note G#, 8
	note F_, 8
	note G_, 8
	note D#, 8
	note F#, 1
	note __, 1
	note F#, 1
	note __, 1
	note F#, 1
	note __, 1
	note F#, 1
	note __, 1
	note F#, 4
	note G_, 4
	note G_, 16
	note C_, 16
	note G_, 8
	note D#, 8
	note D_, 12
	note D#, 2
	note F_, 2
	note D#, 12
	note G_, 4
	note G#, 8
	note F_, 8
	note G_, 8
	note D#, 8
	note D_, 4
	octave 2
	note B_, 2
	octave 3
	note D_, 2
	note D#, 4
	note D_, 4
	note C_, 16
	octave 4
	note C_, 16
	note G_, 8
	note D#, 8
	note D_, 12
	note D#, 2
	note F_, 2
	note D#, 8
	note F_, 4
	note G_, 4
	note G#, 8
	note F_, 8
	note G_, 8
	note D#, 8
	note F#, 1
	note __, 1
	note F#, 1
	note __, 1
	note F#, 1
	note __, 1
	note F#, 1
	note __, 1
	note F#, 4
	note G_, 4
	note G_, 16
	note C_, 16
	note G_, 8
	note D#, 8
	note D_, 12
	note D#, 2
	note F_, 2
	note D#, 2
	note __, 2
	note D_, 2
	note __, 2
	note C_, 8
	note G#, 8
	note F_, 8
	note G_, 8
	note D#, 8
	note D_, 4
	note F_, 4
	note D#, 4
	note D_, 4
	note C_, 16
	octave 2
	note C_, 2
	note __, 2
	note C_, 1
	note __, 1
	note C_, 1
	note __, 1
	note C_, 2
	note __, 2
	note C_, 1
	note __, 1
	note C_, 1
	note __, 1
	note C_, 2
	note __, 2
	note C_, 1
	note __, 1
	note C#, 6
	octave 1
	note A#, 4
	octave 2
	note C_, 2
	note __, 2
	note C_, 1
	note __, 1
	note C_, 1
	note __, 1
	note C_, 2
	note __, 2
	note C_, 1
	note __, 1
	note C_, 1
	note __, 1
	note C_, 2
	note __, 2
	note C_, 1
	note __, 1
	note C#, 6
	octave 1
	note A#, 4
	octave 2
	note C_, 2
	note __, 2
	note C_, 1
	note __, 1
	note C_, 1
	note __, 1
	note C_, 2
	note __, 2
	note C_, 1
	note __, 1
	note C_, 1
	note __, 1
	note C_, 2
	note __, 2
	note C_, 1
	note __, 1
	note C#, 6
	octave 1
	note A#, 4
	octave 2
	note C_, 2
	note __, 2
	note C_, 1
	note __, 1
	note C_, 1
	note __, 1
	note C_, 2
	note __, 2
	note C_, 1
	note __, 1
	note C_, 1
	note __, 1
	note C_, 2
	note __, 2
	note C_, 1
	note __, 1
	note C#, 6
	octave 1
	note A#, 4
	loopchannel 0, Music_tempora_hideout_Ch1_loop

Music_tempora_hideout_Ch2:
	dutycycle 1
	octave 2
	notetype $C, $FF
	note G_, 1
	note __, 1
	notetype $6, $FF
	note G_, 1
	note __, 1
	note G_, 1
	note __, 1
	note G_, 2
	note __, 2
	note G_, 1
	note __, 1
	note G_, 1
	note __, 1
	note G_, 2
	note __, 2
	note G_, 1
	note __, 1
	note G#, 6
	note F_, 4
	note G_, 2
	note __, 2
	note G_, 1
	note __, 1
	note G_, 1
	note __, 1
	note G_, 2
	note __, 2
	note G_, 1
	note __, 1
	note G_, 1
	note __, 1
	note G_, 2
	note __, 2
	note G_, 1
	note __, 1
	note G#, 6
	note F_, 4
Music_tempora_hideout_Ch2_loop:
	note G_, 16
	octave 3
	note C_, 16
	octave 2
	note A#, 16
	octave 3
	note C_, 16
	note D#, 8
	note C_, 8
	note D#, 8
	octave 2
	note A#, 8
	octave 3
	note D_, 8
	note C_, 4
	octave 2
	notetype $F, $FF
	note B_, 8
	notetype $C, $FF
	note G_, 8
	octave 3
	note C_, 8
	octave 2
	note A#, 8
	octave 3
	note C_, 8
	note D#, 4
	note C_, 4
	note D#, 4
	octave 2
	note A#, 4
	note A#, 4
	note B_, 4
	note G_, 8
	octave 3
	note G_, 8
	octave 4
	note C_, 8
	octave 3
	note A#, 8
	octave 4
	note C_, 8
	note D#, 4
	note C_, 4
	note D#, 4
	octave 3
	note A#, 4
	octave 4
	note D_, 4
	note C_, 2
	octave 3
	note B_, 10
	note G_, 8
	octave 4
	note C_, 8
	octave 3
	note A#, 8
	octave 4
	note C_, 8
	note D#, 4
	note C_, 4
	note D#, 4
	octave 3
	note A#, 4
	note A#, 4
	note B_, 4
	note G_, 8
	note __, 16
	note __, 16
	octave 2
	note G_, 1
	note __, 1
	notetype $6, $FF
	note G_, 1
	note __, 1
	note G_, 1
	note __, 1
	note G_, 2
	note __, 2
	note G_, 1
	note __, 1
	note G_, 1
	note __, 1
	note G_, 2
	note __, 2
	note G_, 1
	note __, 1
	note G#, 6
	note F_, 4
	note G_, 2
	note __, 2
	note G_, 1
	note __, 1
	note G_, 1
	note __, 1
	note G_, 2
	note __, 2
	note G_, 1
	note __, 1
	note G_, 1
	note __, 1
	note G_, 2
	note __, 2
	note G_, 1
	note __, 1
	note G#, 6
	note F_, 4
	loopchannel 0, Music_tempora_hideout_Ch2_loop

Music_tempora_hideout_Ch3:
	tone $0007
	octave 2
	notetype $8, $10
	note C_, 2
	note __, 1
	notetype $4, $10
	note C_, 1
	note __, 2
	note C_, 1
	note __, 2
	note C_, 4
	note __, 2
	note C_, 1
	note __, 2
	note C_, 1
	note __, 2
	note C_, 4
	note __, 2
	note C_, 1
	note __, 2
	note C_, 1
	note __, 2
	note C#, 4
	note __, 2
	note C#, 1
	note __, 2
	note C#, 1
	note __, 2
	note C_, 4
	note __, 2
	note C_, 1
	note __, 2
	note C_, 1
	note __, 2
	note C_, 4
	note __, 2
	note C_, 1
	note __, 2
	note C_, 1
	note __, 2
	note C_, 4
	note __, 2
	note C_, 1
	note __, 2
	note C_, 1
	note __, 2
	note C#, 4
	note __, 2
	note C#, 1
	note __, 2
	note C#, 1
	note __, 2
Music_tempora_hideout_Ch3_loop:
	note C_, 4
	note __, 2
	note C_, 1
	note __, 2
	note C_, 1
	note __, 2
	note C_, 4
	note __, 2
	note C_, 1
	note __, 2
	note C_, 1
	note __, 2
	note C_, 4
	note __, 2
	note C_, 1
	note __, 2
	note C_, 1
	note __, 2
	octave 1
	note A#, 4
	note __, 2
	octave 2
	note C_, 1
	note __, 2
	note C_, 1
	note __, 2
	note C_, 4
	note __, 2
	note C_, 1
	note __, 2
	note C_, 1
	note __, 2
	note C_, 4
	note __, 2
	note C_, 1
	note __, 2
	note C_, 1
	note __, 2
	note C_, 4
	note __, 2
	note C_, 1
	note __, 2
	note C_, 1
	note __, 2
	octave 1
	notetype $6, $10
	note A#, 1
	note __, 1
	octave 2
	note C_, 1
	note __, 1
	note C_, 1
	note __, 1
	note C_, 1
	note __, 1
	octave 1
	note G#, 4
	octave 2
	notetype $4, $10
	note D#, 1
	note __, 2
	note D#, 1
	note __, 2
	note D#, 6
	note C_, 6
	octave 1
	note A#, 6
	octave 2
	note D#, 1
	note __, 2
	note D#, 1
	note __, 2
	note D#, 6
	octave 1
	note A#, 6
	octave 2
	note D_, 6
	note D_, 1
	note __, 2
	note D_, 1
	note __, 2
	note D_, 3
	octave 1
	note B_, 3
	notetype $C, $10
	note G_, 6
	notetype $6, $10
	note B_, 1
	note A#, 1
	note B_, 2
	note G_, 2
	note B_, 2
	octave 2
	notetype $8, $10
	note C_, 2
	note __, 1
	notetype $4, $10
	note C_, 1
	note __, 2
	note C_, 1
	note __, 2
	note C_, 4
	note __, 2
	note C_, 1
	note __, 2
	note C_, 1
	note __, 2
	note C_, 4
	note __, 2
	note C_, 1
	note __, 2
	note C_, 1
	note __, 2
	octave 1
	note A#, 4
	note __, 2
	octave 2
	note C_, 1
	note __, 2
	note C_, 1
	note __, 2
	note C_, 4
	note __, 2
	note C_, 1
	note __, 2
	note C_, 1
	note __, 2
	note C_, 4
	note __, 2
	note C_, 1
	note __, 2
	note C_, 1
	note __, 2
	note C_, 4
	note __, 2
	note C_, 1
	note __, 2
	note C_, 1
	note __, 2
	octave 1
	notetype $6, $10
	note A#, 1
	note __, 1
	octave 2
	note C_, 1
	note __, 1
	note C_, 1
	note __, 1
	note C_, 1
	note __, 1
	octave 1
	note G#, 4
	octave 2
	notetype $4, $10
	note D#, 1
	note __, 2
	note D#, 1
	note __, 2
	note D#, 6
	note C_, 3
	note D#, 3
	octave 1
	note A#, 6
	octave 2
	note D#, 1
	note __, 2
	note D#, 1
	note __, 2
	note D#, 6
	octave 1
	note A#, 6
	octave 2
	note D_, 6
	octave 1
	note B_, 1
	note __, 2
	octave 2
	note D_, 1
	note __, 2
	note D#, 6
	note D_, 6
	notetype $C, $10
	note C_, 8
	notetype $8, $10
	note C_, 2
	note __, 1
	notetype $4, $10
	note C_, 1
	note __, 2
	note C_, 1
	note __, 2
	note C_, 4
	note __, 2
	note C_, 1
	note __, 2
	note C_, 1
	note __, 2
	note C_, 4
	note __, 2
	note C_, 1
	note __, 2
	note C_, 1
	note __, 2
	octave 1
	note A#, 4
	note __, 2
	octave 2
	note C_, 1
	note __, 2
	note C_, 1
	note __, 2
	note C_, 4
	note __, 2
	note C_, 1
	note __, 2
	note C_, 1
	note __, 2
	note C_, 4
	note __, 2
	note C_, 1
	note __, 2
	note C_, 1
	note __, 2
	note C_, 4
	note __, 2
	note C_, 1
	note __, 2
	note C_, 1
	note __, 2
	octave 1
	notetype $6, $10
	note A#, 1
	note __, 1
	octave 2
	note C_, 1
	note __, 1
	note C_, 1
	note __, 1
	note C_, 1
	note __, 1
	octave 1
	note G#, 4
	octave 2
	notetype $4, $10
	note D#, 1
	note __, 2
	note D#, 1
	note __, 2
	note D#, 6
	note C_, 6
	octave 1
	note A#, 6
	octave 2
	note D#, 1
	note __, 2
	note D#, 1
	note __, 2
	note D#, 6
	octave 1
	note A#, 6
	octave 2
	note D_, 6
	note D_, 1
	note __, 2
	note D_, 1
	note __, 2
	note D_, 3
	octave 1
	note B_, 3
	notetype $C, $10
	note G_, 6
	notetype $6, $10
	note B_, 1
	note A#, 1
	note B_, 2
	note G_, 2
	note B_, 2
	octave 2
	notetype $8, $10
	note C_, 2
	note __, 1
	notetype $4, $10
	note C_, 1
	note __, 2
	note C_, 1
	note __, 2
	note C_, 4
	note __, 2
	note C_, 1
	note __, 2
	note C_, 1
	note __, 2
	note C_, 4
	note __, 2
	note C_, 1
	note __, 2
	note C_, 1
	note __, 2
	octave 1
	note A#, 4
	note __, 2
	octave 2
	note C_, 1
	note __, 2
	note C_, 1
	note __, 2
	note C_, 4
	note __, 2
	note C_, 1
	note __, 2
	note C_, 1
	note __, 2
	note C_, 4
	note __, 2
	note C_, 1
	note __, 2
	note C_, 1
	note __, 2
	note C_, 4
	note __, 2
	note C_, 1
	note __, 2
	note C_, 1
	note __, 2
	octave 1
	notetype $6, $10
	note A#, 1
	note __, 1
	octave 2
	note C_, 1
	note __, 1
	note C_, 1
	note __, 1
	note C_, 1
	note __, 1
	octave 1
	note G#, 4
	octave 2
	notetype $4, $10
	note D#, 1
	note __, 2
	note D#, 1
	note __, 2
	note D#, 6
	note C_, 3
	note D#, 3
	octave 1
	note A#, 6
	octave 2
	note D#, 1
	note __, 2
	note D#, 1
	note __, 2
	note D#, 6
	octave 1
	note A#, 6
	note G_, 6
	note B_, 6
	note G_, 6
	note B_, 6
	octave 2
	notetype $C, $10
	note C_, 8
	notetype $8, $10
	note C_, 2
	note __, 1
	notetype $4, $10
	note C_, 1
	note __, 2
	note C_, 1
	note __, 2
	note C_, 4
	note __, 2
	note C_, 1
	note __, 2
	note C_, 1
	note __, 2
	note C_, 4
	note __, 2
	note C_, 1
	note __, 2
	note C_, 4
	note __, 2
	note C_, 1
	note __, 2
	note C_, 1
	note __, 2
	note C_, 1
	note __, 2
	note C_, 4
	note __, 2
	note C_, 1
	note __, 2
	note C_, 1
	note __, 2
	note C_, 4
	note __, 2
	note C_, 1
	note __, 2
	note C_, 1
	note __, 2
	note C_, 4
	note __, 2
	note C_, 1
	note __, 2
	note C#, 7
	note __, 2
	note C#, 1
	note __, 2
	note C#, 1
	note __, 2
	note C_, 4
	note __, 2
	note C_, 1
	note __, 2
	note C_, 1
	note __, 2
	note C_, 4
	note __, 2
	note C_, 1
	note __, 2
	note C_, 1
	note __, 2
	note C_, 4
	note __, 2
	note C_, 1
	note __, 2
	note C_, 4
	note __, 2
	note C_, 1
	note __, 2
	note C_, 1
	note __, 2
	note C_, 1
	note __, 2
	note C_, 4
	note __, 2
	note C_, 1
	note __, 2
	note C_, 1
	note __, 2
	note C_, 4
	note __, 2
	note C_, 1
	note __, 2
	note C_, 1
	note __, 2
	note C_, 4
	note __, 2
	note C_, 1
	note __, 2
	note C#, 7
	note __, 2
	note C#, 1
	note __, 2
	note C#, 1
	note __, 2
	loopchannel 0, Music_tempora_hideout_Ch3_loop

Music_tempora_hideout_Ch4:
	togglenoise 2
	notetype $C
	note D#, 2
	notetype $2
	note G_, 1
	note __, 5
	note G_, 1
	note __, 5
	note B_, 12
	note G_, 1
	note __, 5
	note G_, 1
	note __, 5
	note D#, 12
	note G_, 1
	note __, 5
	note G_, 1
	note __, 5
	note B_, 12
	note G_, 1
	note __, 5
	note G_, 1
	note __, 5
	note D#, 12
	note G_, 1
	note __, 5
	note G_, 1
	note __, 5
	note B_, 12
	note G_, 1
	note __, 5
	note G_, 1
	note __, 5
	note D#, 12
	note G_, 1
	note __, 5
	note B_, 12
	note G_, 1
	note __, 5
	note G_, 1
	note __, 5
	note G_, 1
	note __, 5
Music_tempora_hideout_Ch4_loop:
	note D#, 12
	note G_, 1
	note __, 5
	note G_, 1
	note __, 5
	note B_, 12
	note G_, 1
	note __, 5
	note G_, 1
	note __, 5
	note D#, 12
	note G_, 1
	note __, 5
	note G_, 1
	note __, 5
	note B_, 12
	note G_, 1
	note __, 5
	note G_, 1
	note __, 5
	note D#, 12
	note G_, 1
	note __, 5
	note G_, 1
	note __, 5
	note B_, 12
	note G_, 1
	note __, 5
	note G_, 1
	note __, 5
	note D#, 12
	note G_, 1
	note __, 5
	note G_, 1
	note __, 5
	note B_, 12
	note G_, 1
	note __, 5
	note G_, 1
	note __, 5
	note D#, 12
	note G_, 1
	note __, 5
	note G_, 1
	note __, 5
	note B_, 12
	note G_, 1
	note __, 5
	note G_, 1
	note __, 5
	note D#, 12
	note G_, 1
	note __, 5
	note G_, 1
	note __, 5
	note B_, 12
	note G_, 1
	note __, 5
	note G_, 1
	note __, 5
	note D#, 12
	note G_, 1
	note __, 5
	note G_, 1
	note __, 5
	note B_, 12
	note G_, 1
	note __, 5
	note G_, 1
	note __, 5
	note D#, 12
	note G_, 1
	note __, 5
	note B_, 12
	note G_, 1
	note __, 5
	note G_, 1
	note __, 5
	note G_, 1
	note __, 5
	note D#, 12
	note G_, 1
	note __, 5
	note G_, 1
	note __, 5
	note B_, 12
	note G_, 1
	note __, 5
	note G_, 1
	note __, 5
	note D#, 12
	note G_, 1
	note __, 5
	note G_, 1
	note __, 5
	note B_, 12
	note G_, 1
	note __, 5
	note G_, 1
	note __, 5
	note D#, 12
	note G_, 1
	note __, 5
	note G_, 1
	note __, 5
	note B_, 12
	note G_, 1
	note __, 5
	note G_, 1
	note __, 5
	note D#, 12
	note G_, 1
	note __, 5
	note G_, 1
	note __, 5
	note B_, 12
	note G_, 1
	note __, 5
	note G_, 1
	note __, 5
	note D#, 12
	note G_, 1
	note __, 5
	note G_, 1
	note __, 5
	note B_, 12
	note G_, 1
	note __, 5
	note G_, 1
	note __, 5
	note D#, 12
	note G_, 1
	note __, 5
	note G_, 1
	note __, 5
	note B_, 12
	note G_, 1
	note __, 5
	note G_, 1
	note __, 5
	note D#, 12
	note G_, 1
	note __, 5
	note G_, 1
	note __, 5
	note B_, 12
	note G_, 1
	note __, 5
	note G_, 1
	note __, 5
	note D#, 12
	note G_, 1
	note __, 5
	note B_, 12
	note G_, 1
	note __, 5
	note G_, 1
	note __, 5
	note G_, 1
	note __, 5
	note D#, 12
	note G_, 1
	note __, 5
	note G_, 1
	note __, 5
	note B_, 12
	note G_, 1
	note __, 5
	note G_, 1
	note __, 5
	note D#, 12
	note G_, 1
	note __, 5
	note G_, 1
	note __, 5
	note B_, 12
	note G_, 1
	note __, 5
	note G_, 1
	note __, 5
	note D#, 12
	note G_, 1
	note __, 5
	note G_, 1
	note __, 5
	note B_, 12
	note G_, 1
	note __, 5
	note G_, 1
	note __, 5
	note D#, 12
	note G_, 1
	note __, 5
	note G_, 1
	note __, 5
	note B_, 12
	note G_, 1
	note __, 5
	note G_, 1
	note __, 5
	note D#, 12
	note G_, 1
	note __, 5
	note G_, 1
	note __, 5
	note B_, 12
	note G_, 1
	note __, 5
	note G_, 1
	note __, 5
	note D#, 12
	note G_, 1
	note __, 5
	note G_, 1
	note __, 5
	note B_, 12
	note G_, 1
	note __, 5
	note G_, 1
	note __, 5
	note D#, 12
	note G_, 1
	note __, 5
	note G_, 1
	note __, 5
	note B_, 12
	note G_, 1
	note __, 5
	note G_, 1
	note __, 5
	note D#, 12
	note G_, 1
	note __, 5
	note B_, 12
	note G_, 1
	note __, 5
	note G_, 1
	note __, 5
	note G_, 1
	note __, 5
	note D#, 12
	note G_, 1
	note __, 5
	note G_, 1
	note __, 5
	note B_, 12
	note G_, 1
	note __, 5
	note G_, 1
	note __, 5
	note D#, 12
	note G_, 1
	note __, 5
	note G_, 1
	note __, 5
	note B_, 12
	note G_, 1
	note __, 5
	note G_, 1
	note __, 5
	note D#, 12
	note G_, 1
	note __, 5
	note G_, 1
	note __, 5
	note B_, 12
	note G_, 1
	note __, 5
	note G_, 1
	note __, 5
	note D#, 12
	note G_, 1
	note __, 5
	note G_, 1
	note __, 5
	note B_, 12
	note G_, 1
	note __, 5
	note G_, 1
	note __, 5
	note D#, 12
	note G_, 1
	note __, 5
	note G_, 1
	note __, 5
	note B_, 12
	note G_, 1
	note __, 5
	note G_, 1
	note __, 5
	note D#, 12
	note G_, 1
	note __, 5
	note G_, 1
	note __, 5
	note B_, 12
	note G_, 1
	note __, 5
	note G_, 1
	note __, 5
	note D#, 12
	note G_, 1
	note __, 5
	note G_, 1
	note __, 5
	note B_, 12
	note G_, 1
	note __, 5
	note G_, 1
	note __, 5
	note D#, 12
	note G_, 1
	note __, 5
	note B_, 12
	note G_, 1
	note __, 5
	note G_, 1
	note __, 5
	note G_, 1
	note __, 5
	note D#, 12
	note G_, 1
	note __, 5
	note G_, 1
	note __, 5
	note B_, 12
	note G_, 1
	note __, 5
	note G_, 1
	note __, 5
	note D#, 12
	note G_, 1
	note __, 5
	note G_, 1
	note __, 5
	note B_, 12
	note G_, 1
	note __, 5
	note G_, 1
	note __, 5
	note D#, 12
	note G_, 1
	note __, 5
	note G_, 1
	note __, 5
	note B_, 12
	note G_, 1
	note __, 5
	note G_, 1
	note __, 5
	note D#, 12
	note G_, 1
	note __, 5
	note B_, 12
	note G_, 1
	note __, 5
	note G_, 1
	note __, 5
	note G_, 1
	note __, 5
	note D#, 12
	note G_, 1
	note __, 5
	note G_, 1
	note __, 5
	note B_, 12
	note G_, 1
	note __, 5
	note G_, 1
	note __, 5
	note D#, 12
	note G_, 1
	note __, 5
	note G_, 1
	note __, 5
	note B_, 12
	note G_, 1
	note __, 5
	note G_, 1
	note __, 5
	note D#, 12
	note G_, 1
	note __, 5
	note G_, 1
	note __, 5
	note B_, 12
	note G_, 1
	note __, 5
	note G_, 1
	note __, 5
	note D#, 12
	note G_, 1
	note __, 5
	note B_, 12
	note G_, 1
	note __, 5
	note G_, 1
	note __, 5
	note G_, 1
	note __, 5
	loopchannel 0, Music_tempora_hideout_Ch4_loop

