Music_tempora_teamleaderenc:
	musicheader 4, 1, Music_tempora_teamleaderenc_Ch1
	musicheader 1, 2, Music_tempora_teamleaderenc_Ch2
	musicheader 1, 3, Music_tempora_teamleaderenc_Ch3
	musicheader 1, 4, Music_tempora_teamleaderenc_Ch4

Music_tempora_teamleaderenc_Ch1:
	tempo $B0
	volume $77
	stereopanning $77
	dutycycle 1
	octave 3
	notetype $C, $F6
	note B_, 1
	note G_, 1
	octave 2
	note B_, 1
	octave 3
	note B_, 1
	note G_, 1
	octave 2
	note B_, 1
	octave 3
	note B_, 1
	note G_, 1
	octave 2
	note B_, 1
	octave 3
	note B_, 1
	note G_, 1
	octave 2
	note B_, 1
	octave 3
	note B_, 1
	note G_, 1
	note D_, 1
	note G_, 1
Music_tempora_teamleaderenc_Ch1_loop:
	octave 4
	note C_, 4
	note D_, 4
	note D#, 4
	note G_, 2
	note D#, 1
	note G_, 1
	note F#, 8
	note __, 2
	note F_, 1
	note F#, 1
	note D_, 2
	note D#, 2
	note F_, 4
	note D#, 4
	note D_, 2
	note D#, 2
	note F_, 4
	note G_, 8
	octave 5
	note C_, 4
	dutycycle 2
	vibrato $A0, $00
	octave 4
	note C_, 1
	note G_, 1
	note C_, 1
	octave 3
	note G_, 1
	octave 4
	note C_, 4
	note D_, 4
	note D#, 4
	note G_, 2
	note D#, 1
	note G_, 1
	note F#, 8
	note __, 2
	note F_, 2
	note D_, 2
	note D#, 2
	note F_, 4
	note D#, 4
	note D_, 2
	note D#, 1
	note D_, 1
	octave 3
	note B_, 2
	note G_, 2
	octave 4
	note C_, 16
	octave 2
	note G_, 1
	octave 3
	note C_, 1
	note G_, 1
	octave 4
	note C_, 1
	octave 3
	note G_, 1
	note C_, 1
	octave 2
	note G_, 1
	octave 3
	note C_, 1
	octave 2
	note G_, 1
	octave 3
	note C_, 1
	note G_, 1
	octave 4
	note C_, 1
	octave 3
	note G_, 1
	note C_, 1
	octave 2
	note G_, 1
	octave 3
	note C_, 1
	octave 2
	note G_, 1
	octave 3
	note C_, 1
	note G_, 1
	octave 4
	note C_, 1
	octave 3
	note G_, 1
	note C_, 1
	octave 2
	note G_, 1
	octave 3
	note C_, 1
	octave 2
	note G_, 1
	octave 3
	note C_, 1
	note G_, 1
	octave 4
	note C_, 1
	octave 3
	note G_, 1
	note C_, 1
	octave 2
	note G_, 1
	octave 3
	note C_, 1
	octave 2
	note G_, 1
	octave 3
	note C_, 1
	note G_, 1
	octave 4
	note C_, 1
	octave 3
	note G_, 1
	note C_, 1
	octave 2
	note G_, 1
	octave 3
	note C_, 1
	octave 2
	note G_, 1
	octave 3
	note C_, 1
	note G_, 1
	octave 4
	note C_, 1
	octave 3
	note G_, 1
	note C_, 1
	octave 2
	note G_, 1
	octave 3
	note C_, 1
	octave 2
	note G_, 1
	octave 3
	note C_, 1
	note G_, 1
	octave 4
	note C_, 1
	octave 3
	note G_, 1
	note C_, 1
	octave 2
	note G_, 1
	octave 3
	note C_, 1
	octave 2
	note G_, 1
	octave 3
	note C_, 1
	note G_, 1
	octave 4
	note C_, 1
	octave 3
	note G_, 1
	note C_, 1
	octave 2
	note G_, 1
	octave 3
	note C_, 1
	loopchannel 0, Music_tempora_teamleaderenc_Ch1_loop

Music_tempora_teamleaderenc_Ch2:
	octave 1
	notetype $C, $7A
	note B_, 4
	note B_, 4
	octave 2
	note D_, 4
	note D_, 4
Music_tempora_teamleaderenc_Ch2_loop:
	note G_, 8
	octave 3
	note C_, 8
	note D_, 12
	note C_, 4
	octave 2
	note B_, 8
	note G_, 8
	octave 3
	note C_, 16
	note G_, 8
	octave 4
	note C_, 8
	note D_, 12
	note C_, 4
	octave 3
	note B_, 8
	note G_, 8
	note C_, 16
	note C_, 16
	note C_, 16
	octave 2
	note C_, 16
	note C_, 16
	loopchannel 0, Music_tempora_teamleaderenc_Ch2_loop

Music_tempora_teamleaderenc_Ch3:
	dutycycle 4
	octave 1
	notetype $C, $14
	note B_, 16
Music_tempora_teamleaderenc_Ch3_loop:
	octave 2
	note C_, 16
	note D_, 16
	octave 1
	note B_, 16
	octave 2
	note C_, 16
	octave 3
	note C_, 1
	octave 2
	note C_, 1
	note C_, 1
	note C_, 1
	note C_, 1
	note __, 1
	note C_, 1
	note __, 1
	note C_, 1
	note __, 1
	note C_, 1
	note C_, 1
	note C_, 1
	note G_, 1
	note C_, 1
	note G_, 1
	note D_, 1
	note __, 1
	note D_, 1
	note D_, 1
	note D_, 1
	note __, 1
	note D_, 1
	note __, 1
	note D_, 1
	note __, 1
	note D_, 1
	note D_, 1
	note D_, 1
	note A_, 1
	note D_, 1
	note C_, 1
	octave 1
	note B_, 1
	note __, 1
	note B_, 1
	note B_, 1
	note B_, 1
	note __, 1
	note B_, 1
	note __, 1
	note B_, 1
	note __, 1
	note B_, 1
	note B_, 1
	note B_, 1
	octave 2
	note D_, 1
	octave 1
	note B_, 1
	octave 2
	note C#, 1
	note C_, 16
	note C_, 1
	note __, 1
	note C_, 1
	note C_, 1
	note C_, 1
	note __, 1
	note C_, 1
	note __, 1
	octave 3
	note C_, 1
	note C_, 1
	octave 2
	note C_, 1
	note __, 1
	octave 3
	note C_, 1
	note __, 1
	octave 2
	note C_, 2
	note C_, 1
	note __, 1
	note C_, 1
	note C_, 1
	note C_, 1
	note __, 1
	note C_, 1
	note __, 1
	octave 3
	note C_, 1
	note C_, 1
	octave 2
	note C_, 2
	note D_, 2
	note D#, 2
	note C_, 1
	note __, 1
	note C_, 1
	note C_, 1
	note C_, 1
	note __, 1
	note C_, 1
	note __, 1
	octave 3
	note C_, 1
	note C_, 1
	octave 2
	note C_, 1
	note __, 1
	octave 3
	note C_, 1
	note __, 1
	octave 2
	note C_, 2
	note C_, 1
	note __, 1
	note C_, 1
	note C_, 1
	note C_, 1
	note __, 1
	note C_, 1
	note __, 1
	octave 3
	note C_, 1
	note C_, 1
	octave 2
	note C_, 2
	note D_, 2
	note D#, 2
	loopchannel 0, Music_tempora_teamleaderenc_Ch3_loop

Music_tempora_teamleaderenc_Ch4:
	notetype $C
	note __, 8
	togglenoise 3
	note F#, 1
	note F#, 1
	note F#, 1
	note F#, 1
	note F#, 1
	note F#, 1
	notetype $6
	note F#, 1
	note F#, 1
	note F#, 2
Music_tempora_teamleaderenc_Ch4_loop:
	notetype $6
	note D#, 3
	note __, 9
	note D#, 1
	note __, 1
	note D#, 1
	note __, 1
	note D#, 3
	note __, 13
	note D#, 3
	note __, 9
	note D#, 1
	note __, 1
	note D#, 1
	note __, 1
	note D#, 3
	note __, 1
	note D#, 3
	note __, 1
	note D#, 7
	note __, 1
	note D#, 3
	note __, 9
	note D#, 1
	note __, 1
	note D#, 1
	note __, 1
	note D#, 3
	note __, 13
	note D#, 3
	note __, 9
	note F#, 1
	note __, 1
	note F#, 1
	note __, 1
	note F#, 3
	note __, 1
	note F#, 3
	note __, 1
	note F#, 2
	note F#, 2
	note F#, 2
	note F#, 2
	note D#, 3
	note __, 1
	note D#, 1
	note __, 1
	note D#, 1
	note __, 1
	note F#, 4
	note D#, 1
	note __, 1
	note D#, 1
	note __, 1
	note D#, 3
	note __, 1
	note D#, 1
	note __, 1
	note D#, 1
	note __, 1
	note F#, 4
	note D#, 1
	note __, 1
	note D#, 1
	note __, 1
	note D#, 3
	note __, 1
	note D#, 1
	note __, 1
	note D#, 1
	note __, 1
	note F#, 4
	note D#, 1
	note __, 1
	note D#, 1
	note __, 1
	note D#, 3
	note __, 1
	note D#, 1
	note __, 1
	note D#, 1
	note __, 1
	note F#, 4
	note D#, 1
	note __, 1
	note D#, 1
	note __, 1
	note D#, 3
	note __, 1
	note D#, 1
	note __, 1
	note D#, 1
	note __, 1
	note F#, 4
	note D#, 1
	note __, 1
	note D#, 1
	note __, 1
	note D#, 3
	note __, 1
	note D#, 1
	note __, 1
	note D#, 1
	note __, 1
	note F#, 4
	note D#, 1
	note __, 1
	note D#, 1
	note __, 1
	note F#, 16
	note F#, 2
	note F#, 2
	note F#, 2
	note F#, 2
	notetype $5
	note F#, 1
	note F#, 1
	notetype $2
	note __, 1
	note F#, 6
	note F#, 6
	note F#, 6
	note D#, 9
	note __, 3
	note D#, 3
	note __, 3
	note D#, 3
	note __, 3
	note F#, 12
	note D#, 3
	note __, 3
	note D#, 3
	note __, 3
	note D#, 9
	note __, 3
	note D#, 3
	note __, 3
	note D#, 3
	note __, 3
	note F#, 12
	note D#, 3
	note __, 3
	note D#, 3
	note __, 3
	note D#, 9
	note __, 3
	note D#, 3
	note __, 3
	note D#, 3
	note __, 3
	note F#, 12
	note D#, 3
	note __, 3
	note D#, 3
	note __, 3
	note D#, 9
	note __, 3
	note D#, 3
	note __, 3
	note D#, 3
	note __, 3
	note F#, 12
	note D#, 3
	note __, 3
	note D#, 3
	note __, 3
	note D#, 9
	note __, 3
	note D#, 3
	note __, 3
	note D#, 3
	note __, 3
	note F#, 12
	note D#, 3
	note __, 3
	note D#, 3
	note __, 3
	note D#, 9
	note __, 3
	note D#, 3
	note __, 3
	note D#, 3
	note __, 3
	note F#, 12
	note D#, 3
	note __, 3
	note D#, 3
	note __, 3
	note D#, 9
	note __, 3
	note D#, 3
	note __, 3
	note D#, 3
	note __, 3
	note F#, 12
	note D#, 3
	note __, 3
	note D#, 3
	note __, 3
	note F#, 12
	note F#, 6
	note F#, 6
	note F#, 6
	note F#, 6
	note F#, 6
	note F#, 6
	loopchannel 0, Music_tempora_teamleaderenc_Ch4_loop

