Music_tempora_teambattle:
	musicheader 3, 1, Music_tempora_teambattle_Ch1
	musicheader 1, 2, Music_tempora_teambattle_Ch2
	musicheader 1, 3, Music_tempora_teambattle_Ch3

Music_tempora_teambattle_Ch1:
	tempo $60
	volume $77
	stereopanning $77
	dutycycle 1
	octave 4
	notetype $C, $B1
	note G#, 1
	note G_, 1
	note F#, 1
	note F_, 1
	note F#, 1
	note F_, 1
	note E_, 1
	note D#, 1
	note E_, 1
	note D#, 1
	note D_, 1
	note C#, 1
	note D_, 1
	note C#, 1
	note C_, 1
	octave 3
	note B_, 1
	octave 4
	note C_, 1
	octave 3
	note B_, 1
	note A#, 1
	note A_, 1
	note A#, 1
	note A_, 1
	note G#, 1
	note G_, 1
	note G#, 1
	note G_, 1
	note F#, 1
	note F_, 1
	note F#, 1
	note F_, 1
	note E_, 1
	note D#, 1
	intensity $B4
	note G#, 4
	note D#, 2
	note C#, 2
	note D#, 1
	note C#, 1
	octave 2
	note B_, 1
	octave 3
	note D#, 1
	note C#, 2
	note D#, 2
	note E_, 4
	octave 2
	note B_, 2
	note A_, 2
	note B_, 1
	note A_, 1
	note G_, 1
	note B_, 1
	note A_, 2
	note B_, 2
	note G#, 4
	octave 3
	note D#, 2
	note C#, 2
	note D#, 1
	note C#, 1
	octave 2
	note B_, 1
	octave 3
	note D#, 1
	note C#, 2
	note D#, 2
	note E_, 4
	octave 2
	note B_, 2
	note G#, 2
	note A_, 2
	octave 3
	note G#, 1
	note B_, 1
	note A_, 2
	note B_, 2
	octave 4
	note G#, 4
	note D#, 2
	note C#, 2
	note D#, 1
	note C#, 1
	octave 3
	note B_, 1
	octave 4
	note D#, 1
	note C#, 2
	note D#, 2
	note E_, 4
	octave 3
	note B_, 2
	note A_, 2
	note B_, 1
	note A_, 1
	note G_, 1
	note B_, 1
	note A_, 2
	note B_, 2
	note G#, 4
	octave 4
	note D#, 2
	note C#, 2
	note D#, 1
	note C#, 1
	octave 3
	note B_, 1
	octave 4
	note D#, 1
	note C#, 2
	note D#, 2
	note E_, 4
	octave 3
	note B_, 2
	note G#, 2
	note A_, 2
	octave 4
	note G#, 1
	note B_, 1
	note A_, 2
	note B_, 2
Music_tempora_teambattle_Ch1_loop:
	intensity $B8
	note G#, 8
	note D#, 8
	note C#, 3
	octave 3
	note B_, 1
	note G#, 8
	octave 4
	note C#, 2
	note D#, 2
	note E_, 10
	note F#, 2
	note G#, 2
	note E_, 2
	note F#, 2
	note E_, 2
	note D#, 2
	note C#, 2
	octave 3
	note B_, 2
	note G#, 2
	note A_, 2
	note F#, 2
	note G#, 4
	octave 4
	note D#, 4
	note E_, 2
	note D#, 1
	note E_, 1
	note D#, 3
	note C#, 1
	octave 3
	note B_, 4
	note G#, 4
	note F#, 4
	note G#, 3
	octave 4
	note C#, 1
	note E_, 4
	note C#, 2
	octave 3
	note B_, 2
	octave 4
	note C#, 1
	octave 3
	note B_, 1
	note G#, 2
	octave 4
	note E_, 2
	note C#, 2
	note G_, 4
	note A#, 2
	note G_, 2
	note D#, 1
	octave 3
	note B_, 1
	note A#, 2
	note G_, 4
	note G#, 6
	note D#, 1
	note __, 5
	note D#, 1
	note __, 3
	note G#, 6
	note D#, 1
	note __, 5
	note D#, 1
	note __, 3
	note C#, 6
	octave 2
	note G#, 1
	note __, 5
	note G#, 1
	note __, 3
	octave 3
	note D#, 6
	octave 2
	note A#, 1
	note __, 5
	octave 3
	note D#, 4
	note G#, 4
	note D#, 1
	note __, 1
	note D#, 1
	note __, 3
	note D#, 1
	note __, 1
	note D#, 1
	note __, 3
	note G#, 4
	note D#, 1
	note __, 1
	note D#, 1
	note __, 3
	note D#, 1
	note __, 1
	note D#, 1
	note __, 3
	note C#, 4
	octave 2
	note G#, 1
	note __, 1
	note G#, 1
	note __, 3
	note G#, 1
	note __, 1
	note G#, 1
	note __, 3
	octave 3
	note D#, 6
	note F#, 6
	note G_, 4
	intensity $B7
	note G#, 2
	octave 2
	note G#, 1
	note __, 1
	note G#, 1
	note __, 1
	octave 3
	note D#, 2
	octave 2
	note G#, 1
	note __, 1
	note G#, 1
	note __, 1
	octave 3
	note C#, 2
	octave 2
	note A#, 1
	note __, 1
	note A#, 1
	note __, 1
	octave 3
	note D#, 2
	octave 2
	note A#, 1
	note __, 1
	note A#, 1
	note __, 1
	octave 3
	note C#, 2
	octave 2
	note B_, 2
	note A#, 2
	note B_, 2
	note G#, 2
	note D#, 1
	note __, 1
	note D#, 1
	note __, 1
	note G#, 2
	note D#, 1
	note __, 1
	note D#, 1
	note __, 1
	octave 3
	note C#, 2
	octave 2
	note A#, 1
	note __, 1
	note A#, 1
	note __, 1
	octave 3
	note C#, 2
	octave 2
	note B_, 1
	note __, 1
	note A#, 1
	note __, 1
	note A#, 2
	note G_, 2
	note D#, 2
	note G_, 2
	octave 3
	note G#, 2
	octave 2
	note G#, 1
	note __, 1
	note G#, 1
	note __, 1
	octave 3
	note D#, 2
	octave 2
	note G#, 1
	note __, 1
	note G#, 1
	note __, 1
	octave 3
	note C#, 2
	octave 2
	note A#, 1
	note __, 1
	note A#, 1
	note __, 1
	octave 3
	note D#, 2
	octave 2
	note A#, 1
	note __, 1
	note A#, 1
	note __, 1
	octave 3
	note C#, 2
	octave 2
	note B_, 2
	note A#, 2
	note B_, 2
	note G#, 2
	note D#, 1
	note __, 1
	note D#, 1
	note __, 1
	note G#, 2
	note D#, 1
	note __, 1
	note D#, 1
	note __, 1
	octave 3
	note C#, 2
	octave 2
	note A#, 1
	note __, 16
	notetype $1, $B7
	note __, 12
	notetype $C, $B7
	intensity $B8
	octave 4
	note E_, 16
	note E_, 6
	note D#, 4
	note E_, 2
	note D#, 2
	note C#, 2
	note D#, 16
	octave 3
	note A#, 14
	octave 4
	note C#, 2
	note E_, 16
	note E_, 6
	note G#, 4
	note B_, 1
	note G#, 1
	note E_, 4
	note G_, 16
	note A#, 14
	note D#, 2
	note C#, 16
	note C#, 16
	note F_, 16
	note C#, 14
	note D_, 2
	note D#, 16
	note D#, 16
	octave 3
	note A#, 16
	note G_, 16
	note D#, 16
	octave 2
	note A#, 16
	note G_, 8
	note A#, 8
	octave 3
	note D#, 8
	note D#, 1
	note C#, 1
	note D#, 1
	note F#, 1
	note E_, 2
	note F#, 1
	note G_, 1
	note G#, 4
	note D#, 2
	note C#, 2
	note D#, 1
	note C#, 1
	octave 2
	note B_, 1
	octave 3
	note D#, 1
	note C#, 2
	note D#, 2
	note E_, 4
	octave 2
	note B_, 2
	note A_, 2
	note B_, 1
	note A_, 1
	note G_, 1
	note B_, 1
	note A_, 2
	note B_, 2
	note G#, 4
	octave 3
	note D#, 2
	note C#, 2
	note D#, 1
	note C#, 1
	octave 2
	note B_, 1
	octave 3
	note D#, 1
	note C#, 2
	note D#, 2
	note E_, 4
	octave 2
	note B_, 2
	note G#, 2
	note A_, 2
	octave 3
	note G#, 1
	note B_, 1
	note A_, 2
	note B_, 2
	octave 4
	note G#, 4
	note D#, 2
	note C#, 2
	note D#, 1
	note C#, 1
	octave 3
	note B_, 1
	octave 4
	note D#, 1
	note C#, 2
	note D#, 2
	note E_, 4
	octave 3
	note B_, 2
	note A_, 2
	note B_, 1
	note A_, 1
	note G_, 1
	note B_, 1
	note A_, 2
	note B_, 2
	note G#, 4
	octave 4
	note D#, 2
	note C#, 2
	note D#, 1
	note C#, 1
	octave 3
	note B_, 1
	octave 4
	note D#, 1
	note C#, 2
	note D#, 2
	note E_, 4
	octave 3
	note B_, 2
	note G#, 2
	note A_, 2
	octave 4
	note G#, 1
	note B_, 1
	note A_, 2
	note B_, 2
	loopchannel 0, Music_tempora_teambattle_Ch1_loop

Music_tempora_teambattle_Ch2:
	dutycycle 3
	octave 4
	notetype $C, $B2
	note G#, 1
	note D#, 1
	octave 5
	note D#, 1
	octave 4
	note D#, 1
	note G#, 1
	note D#, 1
	octave 5
	note D#, 1
	octave 4
	note D#, 1
	note G#, 1
	note D#, 1
	octave 5
	note D#, 1
	octave 4
	note D#, 1
	note G#, 1
	note D#, 1
	octave 5
	note D#, 1
	octave 4
	note D#, 1
	note G#, 1
	note D#, 1
	octave 5
	note D#, 1
	octave 4
	note D#, 1
	note G#, 1
	note D#, 1
	octave 5
	note D#, 1
	octave 4
	note D#, 1
	note G_, 2
	note D#, 2
	note C#, 2
	octave 3
	note A#, 2
	intensity $A8
	note D#, 8
	note G#, 8
	note C#, 8
	octave 2
	note B_, 4
	octave 3
	note C#, 4
	note D#, 8
	note G#, 8
	note C#, 8
	octave 2
	note B_, 4
	note A_, 4
	octave 3
	note D#, 8
	note G#, 8
	note C#, 8
	octave 2
	note B_, 4
	octave 3
	note C#, 4
	note D#, 8
	note G#, 8
	note C#, 8
	octave 2
	note B_, 4
	note A_, 4
Music_tempora_teambattle_Ch2_loop:
	intensity $BB
	octave 4
	note D#, 8
	octave 3
	note G#, 8
	note F#, 4
	note D#, 8
	note F#, 2
	note G#, 2
	note A_, 12
	note A_, 2
	note A_, 2
	note F#, 4
	note E_, 4
	note D#, 4
	note C#, 4
	note D#, 8
	note G#, 2
	note A_, 1
	note G#, 1
	note F#, 3
	note E_, 1
	note D#, 4
	note D#, 4
	note D#, 4
	note D#, 3
	note G#, 1
	note A_, 8
	note F#, 6
	note G#, 1
	note A_, 1
	note A#, 6
	note A_, 1
	note G#, 1
	note G_, 8
	note D#, 6
	octave 2
	note G#, 1
	note __, 5
	note G#, 1
	note __, 3
	octave 3
	note D#, 6
	octave 2
	note G#, 1
	note __, 5
	note G#, 1
	note __, 3
	note G#, 6
	note F_, 1
	note __, 5
	note F_, 1
	note __, 3
	note A#, 6
	note G_, 1
	note __, 5
	note A#, 4
	octave 3
	note D#, 4
	octave 2
	note G#, 12
	octave 3
	note D#, 4
	octave 2
	note G#, 4
	note B_, 4
	octave 3
	note C_, 4
	note F_, 4
	note C#, 4
	octave 2
	note B_, 4
	octave 3
	note C#, 4
	octave 2
	note A#, 6
	octave 3
	note C#, 6
	note D_, 2
	note E_, 1
	note F#, 1
	intensity $B1
	octave 4
	note G#, 1
	note D#, 1
	octave 5
	note D#, 1
	octave 4
	note B_, 1
	note G#, 1
	note D#, 1
	note C#, 1
	note D#, 1
	octave 3
	note A#, 1
	octave 4
	note D#, 1
	octave 3
	note A#, 1
	octave 4
	note B_, 1
	note G#, 1
	note D#, 1
	octave 3
	note A#, 1
	octave 4
	note D#, 1
	note G#, 1
	note D#, 1
	octave 5
	note D#, 1
	octave 4
	note B_, 1
	note G#, 1
	note D#, 1
	note C#, 1
	note D#, 1
	octave 3
	note A#, 1
	octave 4
	note D#, 1
	octave 3
	note A#, 1
	octave 4
	note B_, 1
	note D#, 2
	note F#, 2
	note G#, 1
	note D#, 1
	octave 5
	note D#, 1
	octave 4
	note B_, 1
	note G#, 1
	note D#, 1
	note C#, 1
	note D#, 1
	octave 3
	note A#, 1
	octave 4
	note D#, 1
	octave 3
	note A#, 1
	octave 4
	note B_, 1
	note G#, 1
	note D#, 1
	octave 3
	note A#, 1
	octave 4
	note D#, 1
	note G#, 1
	note D#, 1
	octave 5
	note D#, 1
	octave 4
	note B_, 1
	note G#, 1
	note D#, 1
	note C#, 1
	note D#, 1
	octave 3
	note A#, 1
	octave 4
	note D#, 1
	octave 3
	note A#, 1
	octave 4
	note B_, 1
	note G_, 4
	note G#, 1
	note D#, 1
	octave 5
	note D#, 1
	octave 4
	note B_, 1
	note G#, 1
	note D#, 1
	note C#, 1
	note D#, 1
	octave 3
	note A#, 1
	octave 4
	note D#, 1
	octave 3
	note A#, 1
	octave 4
	note B_, 1
	note G#, 1
	note D#, 1
	octave 3
	note A#, 1
	octave 4
	note D#, 1
	note G#, 1
	note D#, 1
	octave 5
	note D#, 1
	octave 4
	note B_, 1
	note G#, 1
	note D#, 1
	note C#, 1
	note D#, 1
	octave 3
	note A#, 1
	octave 4
	note D#, 1
	octave 3
	note A#, 1
	octave 4
	note B_, 1
	note D#, 2
	note F#, 2
	note G#, 1
	note D#, 1
	octave 5
	note D#, 1
	octave 4
	note B_, 1
	note G#, 1
	note D#, 1
	note C#, 1
	note D#, 1
	octave 3
	note A#, 1
	octave 4
	note D#, 1
	octave 3
	note A#, 1
	octave 4
	note B_, 1
	note G#, 1
	note D#, 1
	octave 3
	note A#, 1
	octave 4
	note D#, 1
	note G#, 1
	note D#, 1
	note C#, 1
	octave 3
	note B_, 1
	note A#, 1
	note G#, 1
	note G_, 1
	note E_, 1
	note D#, 1
	note C#, 1
	octave 2
	note B_, 1
	note A#, 1
	octave 3
	note C#, 1
	note D#, 1
	note E_, 1
	note F#, 1
	intensity $BB
	note B_, 16
	note B_, 6
	note A#, 4
	note B_, 2
	note A#, 2
	note G#, 2
	note A#, 16
	note G_, 14
	note A#, 2
	note B_, 16
	note B_, 6
	octave 4
	note E_, 4
	note C#, 4
	note D_, 2
	note D#, 16
	note G_, 14
	octave 3
	note A#, 2
	note G#, 16
	note G#, 16
	octave 4
	note C#, 16
	octave 3
	note G#, 14
	note A_, 2
	note A#, 16
	note A#, 16
	note G_, 16
	note D#, 16
	octave 2
	note A#, 16
	note G_, 16
	note D#, 16
	note A#, 8
	note A#, 4
	note B_, 1
	octave 3
	note C_, 1
	note C#, 1
	note D_, 1
	note D#, 8
	note G#, 8
	note C#, 8
	octave 2
	note B_, 4
	octave 3
	note C#, 4
	note D#, 8
	note G#, 8
	note C#, 8
	octave 2
	note B_, 4
	note A_, 4
	octave 3
	note D#, 8
	note G#, 8
	note C#, 8
	octave 2
	note B_, 4
	octave 3
	note C#, 4
	note D#, 8
	note G#, 8
	note C#, 8
	octave 2
	note B_, 4
	note A_, 4
	loopchannel 0, Music_tempora_teambattle_Ch2_loop

Music_tempora_teambattle_Ch3:
	notetype $C, $00
	note __, 8
	dutycycle 4
	intensity $14
	octave 4
	note A#, 2
	note G_, 2
	note G#, 2
	note F_, 1
	note D#, 1
	note G_, 2
	note D#, 2
	note F_, 1
	note D#, 1
	note D_, 2
	note D#, 2
	octave 3
	note B_, 2
	octave 4
	note C#, 1
	octave 3
	note B_, 1
	note A#, 2
	note D#, 2
	note G#, 2
	note D#, 2
	note G#, 2
	note D#, 2
	note G#, 2
	note D#, 2
	note G#, 2
	octave 2
	note B_, 2
	octave 3
	note E_, 2
	octave 2
	note B_, 2
	octave 3
	note E_, 2
	octave 2
	note A_, 2
	octave 3
	note C#, 2
	octave 2
	note A_, 2
	octave 3
	note C#, 2
	octave 2
	note G#, 2
	octave 3
	note D#, 2
	octave 2
	note G#, 2
	octave 3
	note D#, 2
	octave 2
	note G#, 2
	octave 3
	note D#, 2
	octave 2
	note G#, 2
	octave 3
	note D#, 2
	octave 2
	note B_, 2
	octave 3
	note E_, 2
	octave 2
	note B_, 2
	octave 3
	note E_, 2
	octave 2
	note A_, 2
	octave 3
	note C#, 2
	octave 2
	note A_, 2
	octave 3
	note C#, 2
	octave 2
	note G#, 2
	octave 3
	note D#, 2
	octave 2
	note G#, 2
	octave 3
	note D#, 2
	octave 2
	note G#, 2
	octave 3
	note D#, 2
	octave 2
	note G#, 2
	octave 3
	note D#, 2
	octave 2
	note B_, 2
	octave 3
	note E_, 2
	octave 2
	note B_, 2
	octave 3
	note E_, 2
	octave 2
	note A_, 2
	octave 3
	note C#, 2
	octave 2
	note A_, 2
	octave 3
	note C#, 2
	octave 2
	note G#, 2
	octave 3
	note D#, 2
	octave 2
	note G#, 2
	octave 3
	note D#, 2
	octave 2
	note G#, 2
	octave 3
	note D#, 2
	octave 2
	note G#, 2
	octave 3
	note D#, 2
	octave 2
	note B_, 2
	octave 3
	note E_, 2
	octave 2
	note B_, 2
	octave 3
	note E_, 2
	octave 2
	note A_, 2
	octave 3
	note C#, 2
	octave 2
	note A_, 2
	octave 3
	note C#, 2
Music_tempora_teambattle_Ch3_loop:
	octave 2
	note G#, 2
	octave 3
	note D#, 2
	octave 2
	note G#, 2
	octave 3
	note D#, 2
	octave 2
	note G#, 2
	octave 3
	note D#, 2
	octave 2
	note G#, 2
	octave 3
	note D#, 2
	octave 2
	note G#, 2
	octave 3
	note D#, 2
	octave 2
	note G#, 2
	octave 3
	note D#, 2
	octave 2
	note G#, 2
	octave 3
	note D#, 2
	octave 2
	note G#, 2
	octave 3
	note D#, 2
	octave 2
	note A_, 2
	octave 3
	note E_, 2
	octave 2
	note A_, 2
	octave 3
	note E_, 2
	octave 2
	note A_, 2
	octave 3
	note E_, 2
	octave 2
	note A_, 2
	octave 3
	note E_, 2
	octave 2
	note A_, 2
	octave 3
	note E_, 2
	note F#, 2
	note E_, 2
	note D#, 2
	note C#, 1
	note D#, 1
	octave 2
	note B_, 2
	note A_, 2
	note G#, 2
	octave 3
	note D#, 2
	octave 2
	note G#, 2
	octave 3
	note D#, 2
	octave 2
	note G#, 2
	octave 3
	note D#, 2
	octave 2
	note G#, 2
	octave 3
	note D#, 2
	octave 2
	note G#, 2
	octave 3
	note D#, 2
	octave 2
	note G#, 2
	octave 3
	note D#, 2
	octave 2
	note G#, 2
	octave 3
	note D#, 2
	octave 2
	note G#, 2
	octave 3
	note D#, 2
	octave 2
	note A_, 2
	octave 3
	note E_, 2
	octave 2
	note A_, 2
	octave 3
	note E_, 2
	octave 2
	note A_, 2
	octave 3
	note E_, 2
	octave 2
	note A_, 2
	octave 3
	note E_, 2
	octave 2
	note A#, 2
	octave 3
	note D#, 2
	octave 2
	note A#, 2
	octave 3
	note D#, 2
	octave 2
	note A#, 2
	octave 3
	note D#, 2
	octave 2
	note A#, 2
	octave 3
	note D#, 2
	octave 2
	note G#, 2
	octave 3
	note D#, 2
	octave 2
	note G#, 2
	octave 3
	note D#, 2
	octave 2
	note G#, 2
	octave 3
	note D#, 2
	octave 2
	note G#, 2
	octave 3
	note D#, 2
	octave 2
	note G#, 2
	octave 3
	note D#, 2
	octave 2
	note G#, 2
	octave 3
	note D#, 2
	octave 2
	note G#, 2
	octave 3
	note D#, 2
	octave 2
	note G#, 1
	octave 3
	note C_, 1
	note D#, 2
	octave 2
	note G#, 2
	octave 3
	note C#, 2
	octave 2
	note G#, 2
	octave 3
	note C#, 2
	octave 2
	note G#, 2
	octave 3
	note C#, 2
	octave 2
	note G#, 2
	octave 3
	note C#, 2
	octave 2
	note A#, 2
	octave 3
	note D#, 2
	octave 2
	note A#, 2
	octave 3
	note D#, 2
	octave 2
	note A#, 2
	octave 3
	note D#, 2
	octave 2
	note A#, 2
	octave 3
	note D#, 2
	octave 2
	note G#, 2
	octave 3
	note D#, 2
	octave 2
	note G#, 2
	octave 3
	note D#, 2
	octave 2
	note G#, 2
	octave 3
	note D#, 2
	octave 2
	note G#, 2
	octave 3
	note D#, 2
	octave 2
	note G#, 2
	octave 3
	note D#, 2
	octave 2
	note G#, 2
	octave 3
	note D#, 2
	octave 2
	note G#, 2
	octave 3
	note D#, 2
	octave 2
	note G#, 2
	octave 3
	note D#, 2
	octave 2
	note G#, 2
	octave 3
	note C#, 2
	octave 2
	note G#, 2
	octave 3
	note C#, 2
	octave 2
	note G#, 2
	octave 3
	note C#, 2
	octave 2
	note G#, 2
	octave 3
	note C#, 2
	octave 2
	note A#, 14
	octave 3
	note C#, 1
	note D_, 1
	note D#, 2
	octave 2
	note G#, 2
	octave 3
	note D#, 2
	octave 2
	note G#, 2
	note G#, 2
	octave 3
	note D#, 2
	octave 2
	note G#, 2
	octave 3
	note D#, 2
	octave 2
	note A#, 2
	octave 3
	note D#, 2
	note C#, 1
	octave 2
	note B_, 1
	octave 3
	note D#, 2
	note C#, 2
	octave 2
	note B_, 1
	octave 3
	note C#, 1
	octave 2
	note B_, 2
	octave 3
	note C#, 2
	note D#, 2
	octave 2
	note G#, 2
	octave 3
	note D#, 1
	note C#, 1
	octave 2
	note G#, 2
	note G#, 2
	octave 3
	note D#, 2
	octave 2
	note G#, 2
	octave 3
	note D#, 2
	octave 2
	note A#, 2
	octave 3
	note D#, 2
	note C#, 2
	note D#, 2
	octave 2
	note B_, 2
	note A#, 1
	note B_, 1
	note A#, 2
	note G_, 2
	octave 3
	note D#, 2
	octave 2
	note G#, 2
	octave 3
	note D#, 2
	octave 2
	note G#, 2
	note G#, 2
	octave 3
	note D#, 2
	octave 2
	note G#, 2
	octave 3
	note D#, 2
	octave 2
	note A#, 2
	octave 3
	note D#, 2
	note C#, 1
	octave 2
	note B_, 1
	octave 3
	note D#, 2
	note C#, 2
	octave 2
	note B_, 1
	octave 3
	note C#, 1
	octave 2
	note B_, 2
	octave 3
	note C#, 2
	note D#, 2
	octave 2
	note G#, 2
	octave 3
	note D#, 1
	note C#, 1
	octave 2
	note G#, 2
	note G#, 2
	octave 3
	note D#, 2
	octave 2
	note G#, 2
	octave 3
	note D#, 2
	octave 2
	note A#, 2
	octave 3
	note D#, 2
	note C#, 2
	note D#, 2
	octave 2
	note B_, 2
	note A#, 1
	note B_, 1
	note A#, 2
	octave 3
	note D#, 2
	octave 2
	note B_, 2
	octave 3
	note E_, 2
	octave 2
	note B_, 2
	octave 3
	note E_, 2
	octave 2
	note B_, 2
	octave 3
	note E_, 2
	octave 2
	note B_, 2
	octave 3
	note E_, 2
	octave 2
	note B_, 2
	octave 3
	note E_, 2
	octave 2
	note B_, 2
	octave 3
	note E_, 2
	octave 2
	note B_, 2
	octave 3
	note E_, 2
	octave 2
	note B_, 2
	octave 3
	note E_, 2
	octave 2
	note A#, 2
	octave 3
	note D#, 2
	octave 2
	note A#, 2
	octave 3
	note D#, 2
	octave 2
	note A#, 2
	octave 3
	note D#, 2
	octave 2
	note A#, 2
	octave 3
	note D#, 2
	octave 2
	note A#, 2
	octave 3
	note D#, 2
	octave 2
	note A#, 2
	octave 3
	note D#, 2
	octave 2
	note A#, 2
	octave 3
	note D#, 2
	octave 2
	note A#, 2
	octave 3
	note D#, 2
	octave 2
	note B_, 2
	octave 3
	note E_, 2
	octave 2
	note B_, 2
	octave 3
	note E_, 2
	octave 2
	note B_, 2
	octave 3
	note E_, 2
	octave 2
	note B_, 2
	octave 3
	note E_, 2
	octave 2
	note B_, 2
	octave 3
	note E_, 2
	octave 2
	note B_, 2
	octave 3
	note E_, 2
	octave 2
	note B_, 2
	octave 3
	note E_, 2
	octave 2
	note B_, 2
	octave 3
	note E_, 2
	octave 2
	note A#, 2
	octave 3
	note D#, 2
	octave 2
	note A#, 2
	octave 3
	note D#, 2
	octave 2
	note A#, 2
	octave 3
	note D#, 2
	octave 2
	note A#, 2
	octave 3
	note D#, 2
	octave 2
	note A#, 2
	octave 3
	note D#, 2
	octave 2
	note A#, 2
	octave 3
	note D#, 2
	octave 2
	note A#, 2
	octave 3
	note D#, 2
	octave 2
	note A#, 2
	octave 3
	note D#, 2
	octave 2
	note G#, 2
	octave 3
	note C#, 2
	octave 2
	note G#, 2
	octave 3
	note C#, 2
	octave 2
	note G#, 2
	octave 3
	note C#, 2
	octave 2
	note G#, 2
	octave 3
	note C#, 2
	octave 2
	note G#, 2
	octave 3
	note C#, 2
	octave 2
	note G#, 2
	octave 3
	note C#, 2
	octave 2
	note G#, 2
	octave 3
	note C#, 2
	octave 2
	note G#, 2
	octave 3
	note C#, 2
	octave 2
	note G#, 2
	octave 3
	note C#, 2
	octave 2
	note G#, 2
	octave 3
	note C#, 2
	octave 2
	note G#, 2
	octave 3
	note C#, 2
	octave 2
	note G#, 2
	octave 3
	note C#, 2
	octave 2
	note G#, 2
	octave 3
	note C#, 2
	octave 2
	note G#, 2
	octave 3
	note C#, 2
	octave 2
	note G#, 2
	octave 3
	note C#, 2
	octave 2
	note G#, 2
	octave 3
	note C#, 2
	octave 2
	note A#, 2
	octave 3
	note D#, 2
	octave 2
	note A#, 2
	octave 3
	note D#, 2
	octave 2
	note A#, 2
	octave 3
	note D#, 2
	octave 2
	note A#, 2
	octave 3
	note D#, 2
	octave 2
	note A#, 2
	octave 3
	note D#, 2
	octave 2
	note A#, 2
	octave 3
	note D#, 2
	octave 2
	note A#, 2
	octave 3
	note D#, 2
	octave 2
	note A#, 2
	octave 3
	note D#, 2
	octave 2
	note A#, 2
	octave 3
	note D#, 2
	octave 2
	note A#, 2
	octave 3
	note D#, 2
	octave 2
	note A#, 2
	octave 3
	note D#, 2
	octave 2
	note A#, 2
	octave 3
	note D#, 2
	octave 2
	note A#, 2
	octave 3
	note D#, 2
	octave 2
	note A#, 2
	octave 3
	note D#, 2
	octave 2
	note A#, 2
	octave 3
	note D#, 2
	octave 2
	note A#, 2
	octave 3
	note D#, 2
	octave 2
	note A#, 2
	octave 3
	note D#, 2
	octave 2
	note A#, 2
	octave 3
	note D#, 2
	octave 2
	note A#, 2
	octave 3
	note D#, 2
	octave 2
	note A#, 2
	octave 3
	note D#, 2
	octave 2
	note A#, 2
	octave 3
	note D#, 2
	octave 2
	note A#, 2
	octave 3
	note D#, 2
	octave 2
	note A#, 2
	octave 3
	note D#, 2
	octave 2
	note A#, 2
	octave 3
	note D#, 2
	octave 2
	note A#, 2
	octave 3
	note D#, 2
	octave 2
	note A#, 2
	octave 3
	note D#, 2
	octave 2
	note A#, 2
	octave 3
	note D#, 2
	octave 2
	note A#, 2
	octave 3
	note D#, 2
	octave 2
	note A#, 2
	octave 3
	note D#, 2
	octave 2
	note A#, 2
	octave 3
	note D#, 2
	note D#, 1
	octave 2
	note A#, 1
	octave 3
	note C#, 1
	note D#, 1
	note C#, 2
	note D#, 1
	note C#, 1
	note D#, 2
	note G#, 2
	note D#, 2
	note G#, 2
	note D#, 2
	note G#, 2
	note D#, 2
	note G#, 2
	octave 2
	note B_, 2
	octave 3
	note E_, 2
	octave 2
	note B_, 2
	octave 3
	note E_, 2
	octave 2
	note A_, 2
	octave 3
	note C#, 2
	octave 2
	note A_, 2
	octave 3
	note C#, 2
	octave 2
	note G#, 2
	octave 3
	note D#, 2
	octave 2
	note G#, 2
	octave 3
	note D#, 2
	octave 2
	note G#, 2
	octave 3
	note D#, 2
	octave 2
	note G#, 2
	octave 3
	note D#, 2
	octave 2
	note B_, 2
	octave 3
	note E_, 2
	octave 2
	note B_, 2
	octave 3
	note E_, 2
	octave 2
	note A_, 2
	octave 3
	note C#, 2
	octave 2
	note A_, 2
	octave 3
	note C#, 2
	octave 2
	note G#, 2
	octave 3
	note D#, 2
	octave 2
	note G#, 2
	octave 3
	note D#, 2
	octave 2
	note G#, 2
	octave 3
	note D#, 2
	octave 2
	note G#, 2
	octave 3
	note D#, 2
	octave 2
	note B_, 2
	octave 3
	note E_, 2
	octave 2
	note B_, 2
	octave 3
	note E_, 2
	octave 2
	note A_, 2
	octave 3
	note C#, 2
	octave 2
	note A_, 2
	octave 3
	note C#, 2
	octave 2
	note G#, 2
	octave 3
	note D#, 2
	octave 2
	note G#, 2
	octave 3
	note D#, 2
	octave 2
	note G#, 2
	octave 3
	note D#, 2
	octave 2
	note G#, 2
	octave 3
	note D#, 2
	octave 2
	note B_, 2
	octave 3
	note E_, 2
	octave 2
	note B_, 2
	octave 3
	note E_, 2
	octave 2
	note A_, 2
	octave 3
	note C#, 2
	octave 2
	note A_, 2
	octave 3
	note C#, 2
	loopchannel 0, Music_tempora_teambattle_Ch3_loop

